<svg width="42" height="42" viewBox="0 0 42 42" fill="none" xmlns="http://www.w3.org/2000/svg">
<path d="M1 9.00049V33.0005C1 35.8008 1 37.2001 1.54497 38.2697C2.02433 39.2105 2.78868 39.9762 3.72949 40.4556C4.798 41 6.19749 41 8.99228 41H33.0077C35.8025 41 37.2 41 38.2685 40.4556C39.2093 39.9762 39.9762 39.2105 40.4556 38.2697C41 37.2012 41 35.8037 41 33.0089V8.99228C41 6.19749 41 4.798 40.4556 3.72949C39.9762 2.78868 39.2093 2.02433 38.2685 1.54497C37.1989 1 35.8008 1 33.0005 1H9.00049C6.20023 1 4.79905 1 3.72949 1.54497C2.78868 2.02433 2.02433 2.78868 1.54497 3.72949C1 4.79905 1 6.20023 1 9.00049Z" stroke="white" stroke-width="2" stroke-linecap="round" stroke-linejoin="round"/>
<path d="M8.66157 23.8916L17.7996 33.0296C18.8658 34.0958 19.3986 34.6286 20.0133 34.8284C20.554 35.0041 21.1366 35.0046 21.6773 34.8289C22.2915 34.6293 22.8243 34.0965 23.8884 33.0324L33.0323 23.8885C34.0964 22.8244 34.6285 22.2923 34.8281 21.6782C35.0037 21.1374 35.0042 20.5539 34.8285 20.0132C34.629 19.399 34.0969 18.867 33.0328 17.8028L23.8884 8.65851C22.8243 7.59439 22.2915 7.06154 21.6773 6.86199C21.1366 6.6863 20.5536 6.68727 20.0128 6.86297C19.3981 7.06271 18.8658 7.59506 17.7996 8.66126L8.66157 17.7993C7.59537 18.8655 7.06187 19.399 6.86213 20.0137C6.68644 20.5544 6.68644 21.1365 6.86213 21.6772C7.06187 22.2919 7.59537 22.8254 8.66157 23.8916Z" stroke="white" stroke-width="2" stroke-linecap="round" stroke-linejoin="round"/>
<path d="M25.0337 19.3225L22.3685 16.6573C21.8354 16.1242 21.5683 15.8578 21.2609 15.7579C20.9905 15.6701 20.6999 15.6696 20.4296 15.7575C20.1222 15.8574 19.8551 16.1245 19.322 16.6576L16.6568 19.3228C16.1237 19.8559 15.8574 20.1222 15.7575 20.4296C15.6697 20.6999 15.6697 20.991 15.7575 21.2613C15.8574 21.5687 16.1241 21.8354 16.6572 22.3685L19.3225 25.0338C19.8556 25.5669 20.1217 25.8331 20.4291 25.9329C20.6995 26.0208 20.991 26.0213 21.2614 25.9334C21.5684 25.8336 21.8344 25.5677 22.3664 25.0356L25.0346 22.3674C25.5667 21.8354 25.8337 21.5684 25.9334 21.2613C26.0213 20.991 26.0203 20.6999 25.9325 20.4295C25.8326 20.1222 25.5668 19.8556 25.0337 19.3225Z" stroke="white" stroke-width="2" stroke-linecap="round" stroke-linejoin="round"/>
</svg>
